{
  "accessors": [
    {
      "bufferView": 2,
      "componentType": 5126,
      "count": 969,
      "max": [
        0.968026340007782,
        1.964615821838379,
        0.9680262804031372
      ],
      "min": [
        -0.9680262207984924,
        -0.9296380877494812,
        -0.968026340007782
      ],
      "type": "VEC3"
    },
    {
      "bufferView": 2,
      "byteOffset": 11628,
      "componentType": 5126,
      "count": 969,
      "max": [
        0.9999916553497314,
        1.0,
        0.9999916553497314
      ],
      "min": [
        -0.9999916553497314,
        -1.0,
        -0.9999916553497314
      ],
      "type": "VEC3"
    },
    {
      "bufferView": 1,
      "componentType": 5126,
      "count": 969,
      "max": [
        0.8750001192092896,
        1.0
      ],
      "min": [
        0.1250000149011612,
        -1.1920928955078125e-07
      ],
      "type": "VEC2"
    },
    {
      "bufferView": 0,
      "componentType": 5125,
      "count": 5376,
      "type": "SCALAR"
    },
    {
      "bufferView": 2,
      "byteOffset": 23256,
      "componentType": 5126,
      "count": 168,
      "max": [
        3.1368961334228516,
        1.8456146717071533,
        1.0
      ],
      "min": [
        -1.0,
        -0.5489348769187927,
        -1.0
      ],
      "type": "VEC3"
    },
    {
      "bufferView": 2,
      "byteOffset": 25272,
      "componentType": 5126,
      "count": 168,
      "max": [
        0.9976786971092224,
        -0.06809666007757187,
        0.9976786971092224
      ],
      "min": [
        -0.9976786971092224,
        -1.0,
        -0.9976786971092224
      ],
      "type": "VEC3"
    },
    {
      "bufferView": 1,
      "byteOffset": 7752,
      "componentType": 5126,
      "count": 168,
      "max": [
        1.0,
        0.5
      ],
      "min": [
        0.0,
        0.0
      ],
      "type": "VEC2"
    },
    {
      "bufferView": 0,
      "byteOffset": 21504,
      "componentType": 5125,
      "count": 672,
      "type": "SCALAR"
    },
    {
      "bufferView": 2,
      "byteOffset": 27288,
      "componentType": 5126,
      "count": 270,
      "max": [
        1.0000001192092896,
        0.9583334922790527,
        0.9854719638824463
      ],
      "min": [
        -1.0000001192092896,
        -0.958333432674408,
        -0.0
      ],
      "type": "VEC3"
    },
    {
      "bufferView": 2,
      "byteOffset": 30528,
      "componentType": 5126,
      "count": 270,
      "max": [
        0.990515410900116,
        0.9999479651451111,
        1.0
      ],
      "min": [
        -0.990515410900116,
        -0.9999479651451111,
        0.01020049024373293
      ],
      "type": "VEC3"
    },
    {
      "bufferView": 1,
      "byteOffset": 9096,
      "componentType": 5126,
      "count": 270,
      "max": [
        0.8750001192092896,
        1.0
      ],
      "min": [
        0.125,
        -1.1920928955078125e-07
      ],
      "type": "VEC2"
    },
    {
      "bufferView": 0,
      "byteOffset": 24192,
      "componentType": 5125,
      "count": 1344,
      "type": "SCALAR"
    },
    {
      "bufferView": 2,
      "byteOffset": 33768,
      "componentType": 5126,
      "count": 549,
      "max": [
        0.9956602454185486,
        0.9950467944145203,
        0.3072277903556824
      ],
      "min": [
        -0.9956602454185486,
        -0.9950467944145203,
        -0.3072277903556824
      ],
      "type": "VEC3"
    },
    {
      "bufferView": 2,
      "byteOffset": 40356,
      "componentType": 5126,
      "count": 549,
      "max": [
        1.0,
        1.0,
        1.0
      ],
      "min": [
        -1.0,
        -1.0,
        -1.0
      ],
      "type": "VEC3"
    },
    {
      "bufferView": 1,
      "byteOffset": 11256,
      "componentType": 5126,
      "count": 549,
      "max": [
        0.8750001192092896,
        1.0
      ],
      "min": [
        0.1250000149011612,
        -1.1920928955078125e-07
      ],
      "type": "VEC2"
    },
    {
      "bufferView": 0,
      "byteOffset": 29568,
      "componentType": 5125,
      "count": 2880,
      "type": "SCALAR"
    }
  ],
  "asset": {
    "extras": {
      "author": "ijosephpinta (https://sketchfab.com/ijosephpinta)",
      "license": "CC-BY-4.0 (http://creativecommons.org/licenses/by/4.0/)",
      "source": "https://sketchfab.com/3d-models/among-us-rojo-simple-3f596c649e2144288ba13199fc771ad3",
      "title": "Among Us Rojo simple"
    },
    "generator": "Sketchfab-15.77.0",
    "version": "2.0"
  },
  "bufferViews": [
    {
      "buffer": 0,
      "byteLength": 41088,
      "name": "floatBufferViews",
      "target": 34963
    },
    {
      "buffer": 0,
      "byteLength": 15648,
      "byteOffset": 41088,
      "byteStride": 8,
      "name": "floatBufferViews",
      "target": 34962
    },
    {
      "buffer": 0,
      "byteLength": 46944,
      "byteOffset": 56736,
      "byteStride": 12,
      "name": "floatBufferViews",
      "target": 34962
    }
  ],
  "buffers": [
    {
      "byteLength": 103680,
      "uri": "scene.bin"
    }
  ],
  "materials": [
    {
      "doubleSided": true,
      "name": "main_color",
      "pbrMetallicRoughness": {
        "baseColorFactor": [
          0.799999,
          0.0195018,
          0.0264162,
          1.0
        ],
        "metallicFactor": 0.0,
        "roughnessFactor": 0.5
      }
    },
    {
      "doubleSided": true,
      "name": "Material.001",
      "pbrMetallicRoughness": {
        "baseColorFactor": [
          0.207785,
          0.60437,
          0.799999,
          1.0
        ],
        "metallicFactor": 0.861364,
        "roughnessFactor": 0.5
      }
    }
  ],
  "meshes": [
    {
      "name": "Object_0",
      "primitives": [
        {
          "attributes": {
            "NORMAL": 1,
            "POSITION": 0,
            "TEXCOORD_0": 2
          },
          "indices": 3,
          "material": 0,
          "mode": 4
        }
      ]
    },
    {
      "name": "Object_1",
      "primitives": [
        {
          "attributes": {
            "NORMAL": 5,
            "POSITION": 4,
            "TEXCOORD_0": 6
          },
          "indices": 7,
          "material": 0,
          "mode": 4
        }
      ]
    },
    {
      "name": "Object_2",
      "primitives": [
        {
          "attributes": {
            "NORMAL": 9,
            "POSITION": 8,
            "TEXCOORD_0": 10
          },
          "indices": 11,
          "material": 1,
          "mode": 4
        }
      ]
    },
    {
      "name": "Object_3",
      "primitives": [
        {
          "attributes": {
            "NORMAL": 13,
            "POSITION": 12,
            "TEXCOORD_0": 14
          },
          "indices": 15,
          "material": 0,
          "mode": 4
        }
      ]
    }
  ],
  "nodes": [
    {
      "children": [
        1
      ],
      "matrix": [
        1.0,
        0.0,
        0.0,
        0.0,
        0.0,
        2.220446049250313e-16,
        -1.0,
        0.0,
        0.0,
        1.0,
        2.220446049250313e-16,
        0.0,
        0.0,
        0.0,
        0.0,
        1.0
      ],
      "name": "Sketchfab_model"
    },
    {
      "children": [
        2
      ],
      "name": "root"
    },
    {
      "children": [
        3,
        5,
        7,
        9
      ],
      "matrix": [
        1.0,
        0.0,
        0.0,
        0.0,
        0.0,
        2.220446049250313e-16,
        1.0,
        0.0,
        0.0,
        -1.0,
        2.220446049250313e-16,
        0.0,
        0.0,
        0.0,
        0.0,
        1.0
      ],
      "name": "GLTF_SceneRootNode"
    },
    {
      "children": [
        4
      ],
      "name": "Cube_0"
    },
    {
      "mesh": 0,
      "name": "Object_4"
    },
    {
      "children": [
        6
      ],
      "matrix": [
        0.44094157218933105,
        0.0,
        0.0,
        0.0,
        0.0,
        0.44094157218933105,
        0.0,
        0.0,
        0.0,
        0.0,
        0.44094157218933105,
        0.0,
        -0.4711231291294098,
        -1.2815642356872559,
        0.0019030570983886719,
        1.0
      ],
      "name": "Cylinder_1"
    },
    {
      "mesh": 1,
      "name": "Object_6"
    },
    {
      "children": [
        8
      ],
      "matrix": [
        0.6918618083000183,
        0.0,
        0.0,
        0.0,
        0.0,
        0.4661972224712372,
        0.0,
        0.0,
        0.0,
        0.0,
        0.4661972224712372,
        0.0,
        0.0,
        1.0021708011627197,
        0.673107385635376,
        1.0
      ],
      "name": "Cube.001_2"
    },
    {
      "mesh": 2,
      "name": "Object_8"
    },
    {
      "children": [
        10
      ],
      "matrix": [
        0.6804087162017822,
        0.0,
        0.0,
        0.0,
        0.0,
        0.7645329236984253,
        0.0,
        0.0,
        0.0,
        0.0,
        1.0970253944396973,
        0.0,
        0.0,
        0.5447548627853394,
        -1.16612708568573,
        1.0
      ],
      "name": "Cube.002_3"
    },
    {
      "mesh": 3,
      "name": "Object_10"
    }
  ],
  "scene": 0,
  "scenes": [
    {
      "name": "Sketchfab_Scene",
      "nodes": [
        0
      ]
    }
  ]
}
